<svg width="25" height="24" viewBox="0 0 25 24" fill="none" xmlns="http://www.w3.org/2000/svg">
<path d="M22.3739 1.71429H18.9453V0.857143C18.9453 0.629814 18.855 0.411797 18.6943 0.251051C18.5335 0.0903058 18.3155 0 18.0882 0C17.8608 0 17.6428 0.0903058 17.4821 0.251051C17.3213 0.411797 17.231 0.629814 17.231 0.857143V1.71429H8.6596V0.857143C8.6596 0.629814 8.56929 0.411797 8.40855 0.251051C8.2478 0.0903058 8.02978 0 7.80246 0C7.57513 0 7.35711 0.0903058 7.19636 0.251051C7.03562 0.411797 6.94531 0.629814 6.94531 0.857143V1.71429H3.51674C2.83476 1.71429 2.1807 1.9852 1.69847 2.46744C1.21623 2.94968 0.945313 3.60373 0.945312 4.28571V21.4286C0.945313 22.1106 1.21623 22.7646 1.69847 23.2468C2.1807 23.7291 2.83476 24 3.51674 24H22.3739C23.0559 24 23.7099 23.7291 24.1922 23.2468C24.6744 22.7646 24.9453 22.1106 24.9453 21.4286V4.28571C24.9453 3.60373 24.6744 2.94968 24.1922 2.46744C23.7099 1.9852 23.0559 1.71429 22.3739 1.71429ZM3.51674 3.42857H22.3739C22.6012 3.42857 22.8192 3.51888 22.98 3.67962C23.1407 3.84037 23.231 4.05839 23.231 4.28571V6.85714H2.6596V4.28571C2.6596 4.05839 2.7499 3.84037 2.91065 3.67962C3.0714 3.51888 3.28941 3.42857 3.51674 3.42857ZM22.3739 22.2857H3.51674C3.28941 22.2857 3.0714 22.1954 2.91065 22.0347C2.7499 21.8739 2.6596 21.6559 2.6596 21.4286V8.57143H23.231V21.4286C23.231 21.6559 23.1407 21.8739 22.98 22.0347C22.8192 22.1954 22.6012 22.2857 22.3739 22.2857Z" fill="#252525" fill-opacity="0.36"/>
<path d="M16.674 11.3495L11.274 15.9781L9.26316 13.9681C9.1015 13.8119 8.88498 13.7256 8.66024 13.7275C8.4355 13.7295 8.22052 13.8196 8.0616 13.9785C7.90268 14.1374 7.81253 14.3524 7.81058 14.5772C7.80863 14.8019 7.89502 15.0184 8.05116 15.1801L10.6226 17.7515C10.7753 17.904 10.9798 17.9933 11.1954 18.0015C11.411 18.0098 11.6218 17.9364 11.7857 17.7961L17.7857 12.6532C17.876 12.5816 17.951 12.4925 18.0061 12.3912C18.0612 12.2899 18.0952 12.1786 18.1063 12.0639C18.1174 11.9491 18.1052 11.8333 18.0704 11.7234C18.0357 11.6135 17.9791 11.5117 17.9041 11.4241C17.8292 11.3366 17.7373 11.265 17.634 11.2138C17.5307 11.1626 17.4182 11.1327 17.3031 11.126C17.188 11.1192 17.0728 11.1358 16.9642 11.1747C16.8557 11.2135 16.7561 11.2739 16.6714 11.3521L16.674 11.3495Z" fill="#252525" fill-opacity="0.36"/>
</svg>
