<svg width="29" height="28" viewBox="0 0 29 28" fill="none" xmlns="http://www.w3.org/2000/svg">
<path d="M8.6461 10.7257C9.68448 10.5502 10.619 9.991 11.2646 9.15893C11.9101 8.32686 12.2195 7.28265 12.1314 6.23323C12.0433 5.18381 11.5642 4.20577 10.7891 3.49293C10.0139 2.78008 8.99921 2.38446 7.9461 2.38446C6.89299 2.38446 5.87831 2.78008 5.10314 3.49293C4.32797 4.20577 3.84888 5.18381 3.76081 6.23323C3.67275 7.28265 3.98213 8.32686 4.62765 9.15893C5.27317 9.991 6.20772 10.5502 7.2461 10.7257V16.4405C6.20772 16.616 5.27317 17.1752 4.62765 18.0073C3.98213 18.8394 3.67275 19.8836 3.76081 20.933C3.84888 21.9824 4.32797 22.9605 5.10314 23.6733C5.87831 24.3862 6.89299 24.7818 7.9461 24.7818C8.99921 24.7818 10.0139 24.3862 10.7891 23.6733C11.5642 22.9605 12.0433 21.9824 12.1314 20.933C12.2195 19.8836 11.9101 18.8394 11.2646 18.0073C10.619 17.1752 9.68448 16.616 8.6461 16.4405V10.7257ZM7.9461 9.38312C7.2035 9.38312 6.4913 9.08812 5.9662 8.56302C5.4411 8.03791 5.1461 7.32572 5.1461 6.58312C5.1461 5.84051 5.4411 5.12832 5.9662 4.60322C6.4913 4.07812 7.2035 3.78312 7.9461 3.78312C8.68871 3.78312 9.4009 4.07812 9.926 4.60322C10.4511 5.12832 10.7461 5.84051 10.7461 6.58312C10.7461 7.32572 10.4511 8.03791 9.926 8.56302C9.4009 9.08812 8.68871 9.38312 7.9461 9.38312ZM10.7461 20.5831C10.7461 21.3257 10.4511 22.0379 9.926 22.563C9.4009 23.0881 8.68871 23.3831 7.9461 23.3831C7.2035 23.3831 6.4913 23.0881 5.9662 22.563C5.4411 22.0379 5.1461 21.3257 5.1461 20.5831C5.1461 19.8405 5.4411 19.1283 5.9662 18.6032C6.4913 18.0781 7.2035 17.7831 7.9461 17.7831C8.68871 17.7831 9.4009 18.0781 9.926 18.6032C10.4511 19.1283 10.7461 19.8405 10.7461 20.5831ZM16.5505 9.17872C16.6819 9.31016 16.8602 9.384 17.0461 9.384C17.232 9.384 17.4103 9.31016 17.5417 9.17872C17.6731 9.04728 17.747 8.869 17.747 8.68312C17.747 8.49723 17.6731 8.31896 17.5417 8.18752L15.9359 6.58312H18.4461C19.3744 6.58312 20.2646 6.95187 20.921 7.60824C21.5774 8.26462 21.9461 9.15486 21.9461 10.0831V16.3831C20.8939 16.3847 19.8806 16.7811 19.1067 17.4941C18.3328 18.207 17.8547 19.1844 17.767 20.233C17.6792 21.2816 17.9883 22.3249 18.633 23.1565C19.2777 23.9881 20.2111 24.5474 21.2484 24.7237C22.2858 24.9001 23.3515 24.6806 24.2348 24.1088C25.1181 23.5369 25.7546 22.6544 26.0183 21.6357C26.282 20.6171 26.1538 19.5366 25.6589 18.608C25.1641 17.6793 24.3387 16.9703 23.3461 16.6211V10.0831C23.3461 8.78356 22.8299 7.53722 21.9109 6.61829C20.992 5.69937 19.7457 5.18312 18.4461 5.18312H15.9359L17.5417 3.57872C17.6068 3.51363 17.6584 3.43637 17.6936 3.35133C17.7289 3.2663 17.747 3.17516 17.747 3.08312C17.747 2.99108 17.7289 2.89994 17.6936 2.8149C17.6584 2.72986 17.6068 2.6526 17.5417 2.58752C17.4766 2.52243 17.3994 2.47081 17.3143 2.43558C17.2293 2.40036 17.1381 2.38223 17.0461 2.38223C16.9541 2.38223 16.8629 2.40036 16.7779 2.43558C16.6929 2.47081 16.6156 2.52243 16.5505 2.58752L13.7505 5.38752C13.6853 5.45254 13.6336 5.52979 13.5983 5.61483C13.563 5.69987 13.5449 5.79104 13.5449 5.88312C13.5449 5.97519 13.563 6.06636 13.5983 6.1514C13.6336 6.23645 13.6853 6.31369 13.7505 6.37872L16.5505 9.17872ZM24.7461 20.5831C24.7461 21.3257 24.4511 22.0379 23.926 22.563C23.4009 23.0881 22.6887 23.3831 21.9461 23.3831C21.2035 23.3831 20.4913 23.0881 19.9662 22.563C19.4411 22.0379 19.1461 21.3257 19.1461 20.5831C19.1461 19.8405 19.4411 19.1283 19.9662 18.6032C20.4913 18.0781 21.2035 17.7831 21.9461 17.7831C22.6887 17.7831 23.4009 18.0781 23.926 18.6032C24.4511 19.1283 24.7461 19.8405 24.7461 20.5831Z" fill="#252525" fill-opacity="0.36"/>
</svg>
