<svg width="21" height="20" viewBox="0 0 21 20" fill="none" xmlns="http://www.w3.org/2000/svg">
<path d="M5.11198 4.02279H6.77865V4.85612C6.77865 5.77279 7.52865 6.52279 8.44531 6.52279H13.4453C14.362 6.52279 15.112 5.77279 15.112 4.85612V4.02279H16.7786V8.18945H18.4453V4.02279C18.4453 3.10612 17.6953 2.35612 16.7786 2.35612H13.2953C12.9453 1.38945 12.0286 0.689453 10.9453 0.689453C9.86198 0.689453 8.94531 1.38945 8.59531 2.35612H5.11198C4.19531 2.35612 3.44531 3.10612 3.44531 4.02279V15.6895C3.44531 16.6061 4.19531 17.3561 5.11198 17.3561H10.112V15.6895H5.11198V4.02279ZM10.9453 2.35612C11.4036 2.35612 11.7786 2.73112 11.7786 3.18945C11.7786 3.64779 11.4036 4.02279 10.9453 4.02279C10.487 4.02279 10.112 3.64779 10.112 3.18945C10.112 2.73112 10.487 2.35612 10.9453 2.35612Z" fill="#252525" fill-opacity="0.36"/>
<path d="M19.0701 10.0644C18.7284 9.72269 18.1617 9.72269 17.8201 10.0644L13.8701 14.0227L11.9867 12.1477C11.6451 11.806 11.0867 11.806 10.7367 12.1477C10.3951 12.4894 10.3951 13.056 10.7367 13.3977L13.2784 15.931C13.6034 16.256 14.1284 16.256 14.4534 15.931L19.0617 11.3144C19.4117 10.9727 19.4117 10.406 19.0701 10.0644Z" fill="#252525" fill-opacity="0.36"/>
</svg>
