<svg width="25" height="24" viewBox="0 0 25 24" fill="none" xmlns="http://www.w3.org/2000/svg">
<g clip-path="url(#clip0_2703_535)">
<path d="M2.39202 21.3128H3.57702C4.3199 21.3128 4.90212 20.7404 4.90212 19.9976V18.3109C7.1316 18.4514 10.3546 18.5516 12.9349 18.5516C15.5256 18.5516 18.7486 18.4514 20.9781 18.3109V19.9976C20.9781 20.7404 21.5504 21.3128 22.3032 21.3128H23.4882C24.2413 21.3128 24.8235 20.7404 24.8235 19.9976V14.2041C24.8235 12.517 24.4821 11.5629 23.5486 10.3582L22.705 9.26356C22.3336 7.45649 21.6708 5.5586 21.3195 4.81573C20.787 3.68085 19.7429 3.0078 18.4076 2.82744C17.7349 2.7469 15.5359 2.68692 12.9349 2.68692C10.3447 2.68692 8.14524 2.75718 7.47262 2.82744C6.13724 2.9881 5.09319 3.68085 4.5611 4.8153C4.20979 5.5586 3.5466 7.45649 3.17517 9.26356L2.33161 10.3582C1.39766 11.5633 1.05664 12.517 1.05664 14.2041V19.9976C1.05664 20.7404 1.63929 21.3128 2.39202 21.3128ZM5.20372 8.43029C5.44449 7.32582 5.92646 5.88977 6.25763 5.30712C6.52882 4.83586 6.82014 4.63451 7.36252 4.56467C8.1251 4.45414 9.83235 4.39374 12.9349 4.39374C16.0478 4.39374 17.7546 4.43401 18.5181 4.56467C19.0502 4.64479 19.3411 4.83543 19.6225 5.30755C19.964 5.87992 20.4155 7.3254 20.6764 8.43029C20.7673 8.80172 20.6165 8.94224 20.2249 8.91225C18.5584 8.81201 16.5701 8.70147 12.9349 8.70147C9.31053 8.70147 7.32225 8.81201 5.65527 8.91225C5.2637 8.94224 5.12318 8.80172 5.20329 8.43029M5.61457 15.9512C4.66092 15.9512 3.94803 15.228 3.94803 14.2842C3.94803 13.3301 4.66092 12.6176 5.61457 12.6176C6.56823 12.6176 7.28155 13.3301 7.28155 14.2842C7.28155 15.228 6.56866 15.9507 5.615 15.9507M20.2652 15.9507C19.3111 15.9507 18.5986 15.2276 18.5986 14.2838C18.5986 13.3297 19.3111 12.6172 20.2652 12.6172C21.209 12.6172 21.9317 13.3297 21.9317 14.2838C21.9317 15.2276 21.209 15.9507 20.2652 15.9507ZM10.2745 15.4885C9.57144 15.4885 9.07919 14.9864 9.07919 14.2833C9.07919 13.5704 9.57144 13.0786 10.2745 13.0786H15.6061C16.3087 13.0786 16.801 13.5704 16.801 14.2833C16.801 14.9859 16.3087 15.4885 15.6057 15.4885H10.2745Z" fill="#252525" fill-opacity="0.36"/>
</g>
<defs>
<clipPath id="clip0_2703_535">
<rect width="23.9914" height="23.9914" fill="white" transform="translate(0.945312 0.00430298)"/>
</clipPath>
</defs>
</svg>
