<svg width="25" height="24" viewBox="0 0 25 24" fill="none" xmlns="http://www.w3.org/2000/svg">
<g clip-path="url(#clip0_2703_539)">
<path d="M7.94152 3.99805C5.74271 3.99805 3.94369 5.79707 3.94369 7.99588C3.94369 10.1947 5.74271 11.9937 7.94152 11.9937C10.1403 11.9937 11.9394 10.1947 11.9394 7.99588C11.9394 5.79707 10.1403 3.99805 7.94152 3.99805ZM7.94152 9.99479C6.84211 9.99479 5.9426 9.09528 5.9426 7.99588C5.9426 6.89647 6.84211 5.99696 7.94152 5.99696C9.04092 5.99696 9.94043 6.89647 9.94043 7.99588C9.94043 9.09528 9.04092 9.99479 7.94152 9.99479ZM7.94152 13.9926C4.04363 13.9926 0.945312 15.7917 0.945312 17.9905V19.9894H11.9394V17.9905H2.94423C2.94423 17.3908 4.74325 15.9915 7.94152 15.9915C9.74054 15.9915 11.1398 16.4913 11.9394 16.991V14.7922C10.8399 14.2925 9.44071 13.9926 7.94152 13.9926ZM22.9334 3.99805H15.9372C14.8378 3.99805 13.9383 4.89756 13.9383 5.99696V17.9905C13.9383 19.0899 14.8378 19.9894 15.9372 19.9894H22.9334C24.0328 19.9894 24.9323 19.0899 24.9323 17.9905V5.99696C24.9323 4.89756 24.0328 3.99805 22.9334 3.99805ZM16.9366 17.9905H15.9372V5.99696H16.9366V17.9905ZM22.9334 17.9905H18.9356V5.99696H22.9334V17.9905Z" fill="#252525" fill-opacity="0.36"/>
</g>
<defs>
<clipPath id="clip0_2703_539">
<rect width="23.987" height="23.987" fill="white" transform="translate(0.945312)"/>
</clipPath>
</defs>
</svg>
