<svg width="25" height="24" viewBox="0 0 25 24" fill="none" xmlns="http://www.w3.org/2000/svg">
<path d="M17.9394 17.9932V15.9939M12.9412 17.9932V14.9942M7.943 17.9932V12.995M6.94336 6.99712C10.1392 10.2639 14.1748 11.0767 18.0804 9.98805M16.6279 8.46859L18.7011 9.48423C18.947 9.60518 19.013 9.88408 18.8491 10.108L17.4666 11.9953" stroke="#252525" stroke-opacity="0.36" stroke-width="1.35903" stroke-linecap="round" stroke-linejoin="round"/>
<path d="M3.44531 11.9955C3.44531 7.51915 3.44531 5.27995 4.83581 3.88945C6.22631 2.49895 8.46451 2.49895 12.9419 2.49895C17.4183 2.49895 19.6575 2.49895 21.048 3.88945C22.4385 5.27995 22.4385 7.51815 22.4385 11.9955C22.4385 16.4719 22.4385 18.7111 21.048 20.1016C19.6575 21.4921 17.4193 21.4921 12.9419 21.4921C8.46551 21.4921 6.22631 21.4921 4.83581 20.1016C3.44531 18.7111 3.44531 16.4729 3.44531 11.9955Z" stroke="#252525" stroke-opacity="0.36" stroke-width="1.35903" stroke-linecap="round" stroke-linejoin="round"/>
</svg>
