<svg width="24" height="24" viewBox="0 0 24 24" fill="none" xmlns="http://www.w3.org/2000/svg">
<path d="M11.9935 14.7968C13.6494 14.7968 14.9919 13.4544 14.9919 11.7984C14.9919 10.1425 13.6494 8.80005 11.9935 8.80005C10.3375 8.80005 8.99512 10.1425 8.99512 11.7984C8.99512 13.4544 10.3375 14.7968 11.9935 14.7968Z" stroke="#252525" stroke-opacity="0.36" stroke-width="1.49919"/>
<path d="M13.7574 1.95636C13.3906 1.80444 12.9249 1.80444 11.9934 1.80444C11.0619 1.80444 10.5961 1.80444 10.2293 1.95636C9.98666 2.05682 9.76615 2.20412 9.58042 2.38985C9.39469 2.57558 9.24739 2.79609 9.14693 3.03877C9.05498 3.26165 9.018 3.52251 9.00401 3.90131C8.9975 4.17509 8.92166 4.44274 8.78357 4.67924C8.64548 4.91573 8.44967 5.11334 8.21444 5.25357C7.97537 5.38727 7.7063 5.45814 7.43239 5.45953C7.15849 5.46093 6.8887 5.39282 6.64829 5.26157C6.31247 5.08367 6.0696 4.98572 5.82873 4.95374C5.30333 4.88464 4.772 5.027 4.35153 5.34952C4.0377 5.59239 3.80383 5.99517 3.33808 6.80173C2.87233 7.6083 2.63846 8.01108 2.58749 8.40586C2.55314 8.66618 2.57042 8.9307 2.63833 9.18434C2.70624 9.43797 2.82345 9.67574 2.98327 9.88406C3.13119 10.076 3.33808 10.2369 3.65891 10.4388C4.13165 10.7356 4.43549 11.2413 4.43549 11.799C4.43549 12.3567 4.13165 12.8624 3.65891 13.1583C3.33808 13.3612 3.13019 13.5221 2.98327 13.714C2.82345 13.9223 2.70624 14.1601 2.63833 14.4137C2.57042 14.6673 2.55314 14.9319 2.58749 15.1922C2.63946 15.586 2.87233 15.9898 3.33708 16.7963C3.80383 17.6029 4.0367 18.0057 4.35153 18.2485C4.55985 18.4083 4.79762 18.5256 5.05126 18.5935C5.30489 18.6614 5.56942 18.6787 5.82973 18.6443C6.0696 18.6123 6.31247 18.5144 6.64829 18.3365C6.8887 18.2052 7.15849 18.1371 7.43239 18.1385C7.7063 18.1399 7.97537 18.2108 8.21444 18.3445C8.69717 18.6243 8.98402 19.139 9.00401 19.6967C9.018 20.0765 9.05398 20.3364 9.14693 20.5593C9.24739 20.802 9.39469 21.0225 9.58042 21.2082C9.76615 21.3939 9.98666 21.5412 10.2293 21.6417C10.5961 21.7936 11.0619 21.7936 11.9934 21.7936C12.9249 21.7936 13.3906 21.7936 13.7574 21.6417C14.0001 21.5412 14.2206 21.3939 14.4064 21.2082C14.5921 21.0225 14.7394 20.802 14.8398 20.5593C14.9318 20.3364 14.9688 20.0765 14.9828 19.6967C15.0028 19.139 15.2896 18.6233 15.7723 18.3445C16.0114 18.2108 16.2805 18.1399 16.5544 18.1385C16.8283 18.1371 17.0981 18.2052 17.3385 18.3365C17.6743 18.5144 17.9172 18.6123 18.157 18.6443C18.4174 18.6787 18.6819 18.6614 18.9355 18.5935C19.1892 18.5256 19.4269 18.4083 19.6352 18.2485C19.9501 18.0067 20.1829 17.6029 20.6487 16.7963C21.1144 15.9898 21.3483 15.587 21.3993 15.1922C21.4336 14.9319 21.4164 14.6673 21.3484 14.4137C21.2805 14.1601 21.1633 13.9223 21.0035 13.714C20.8556 13.5221 20.6487 13.3612 20.3279 13.1593C20.0939 13.0168 19.9 12.8172 19.7641 12.5793C19.6283 12.3414 19.5551 12.0729 19.5513 11.799C19.5513 11.2413 19.8551 10.7356 20.3279 10.4398C20.6487 10.2369 20.8566 10.076 21.0035 9.88406C21.1633 9.67574 21.2805 9.43797 21.3484 9.18434C21.4164 8.9307 21.4336 8.66618 21.3993 8.40586C21.3473 8.01208 21.1144 7.6083 20.6497 6.80173C20.1829 5.99517 19.9501 5.59239 19.6352 5.34952C19.4269 5.1897 19.1892 5.07248 18.9355 5.00458C18.6819 4.93667 18.4174 4.91939 18.157 4.95374C17.9172 4.98572 17.6743 5.08367 17.3375 5.26157C17.0972 5.39264 16.8276 5.46066 16.5539 5.45926C16.2802 5.45786 16.0113 5.38709 15.7723 5.25357C15.5371 5.11334 15.3413 4.91573 15.2032 4.67924C15.0651 4.44274 14.9893 4.17509 14.9828 3.90131C14.9688 3.52151 14.9328 3.26165 14.8398 3.03877C14.7394 2.79609 14.5921 2.57558 14.4064 2.38985C14.2206 2.20412 14.0001 2.05682 13.7574 1.95636Z" stroke="#252525" stroke-opacity="0.36" stroke-width="1.49919"/>
</svg>
